%TF.GenerationSoftware,KiCad,Pcbnew,9.0.6*%
%TF.CreationDate,2025-12-06T11:07:59-05:00*%
%TF.ProjectId,cheating-calc,63686561-7469-46e6-972d-63616c632e6b,rev?*%
%TF.SameCoordinates,Original*%
%TF.FileFunction,Legend,Top*%
%TF.FilePolarity,Positive*%
%FSLAX46Y46*%
G04 Gerber Fmt 4.6, Leading zero omitted, Abs format (unit mm)*
G04 Created by KiCad (PCBNEW 9.0.6) date 2025-12-06 11:07:59*
%MOMM*%
%LPD*%
G01*
G04 APERTURE LIST*
%ADD10C,0.150000*%
%ADD11C,0.200000*%
%ADD12C,0.120000*%
%ADD13C,0.127000*%
G04 APERTURE END LIST*
D10*
G36*
X101684000Y-68812468D02*
G01*
X101423087Y-68942955D01*
X101356253Y-68980353D01*
X101313113Y-69012800D01*
X101287532Y-69041019D01*
X101269822Y-69074286D01*
X101258330Y-69116641D01*
X101254132Y-69170406D01*
X101254132Y-69320677D01*
X101684000Y-69320677D01*
X101684000Y-69458674D01*
X100664041Y-69458674D01*
X100664041Y-69147203D01*
X100777370Y-69147203D01*
X100777370Y-69320677D01*
X101140803Y-69320677D01*
X101140803Y-69147203D01*
X101134908Y-69082217D01*
X101118979Y-69033241D01*
X101094519Y-68996566D01*
X101060446Y-68969193D01*
X101016130Y-68951922D01*
X100958415Y-68945642D01*
X100900716Y-68951938D01*
X100856650Y-68969219D01*
X100822982Y-68996566D01*
X100798904Y-69033186D01*
X100783191Y-69082159D01*
X100777370Y-69147203D01*
X100664041Y-69147203D01*
X100669529Y-69058139D01*
X100684544Y-68987050D01*
X100707431Y-68930667D01*
X100737314Y-68886291D01*
X100776737Y-68849957D01*
X100825311Y-68823286D01*
X100884994Y-68806302D01*
X100958476Y-68800195D01*
X101021464Y-68805575D01*
X101074228Y-68820749D01*
X101118699Y-68844953D01*
X101156208Y-68878600D01*
X101185601Y-68921404D01*
X101207054Y-68975073D01*
X101229274Y-68933076D01*
X101271168Y-68888672D01*
X101325915Y-68848769D01*
X101406051Y-68804286D01*
X101684000Y-68664213D01*
X101684000Y-68812468D01*
G37*
G36*
X100664041Y-68486587D02*
G01*
X100664041Y-68348590D01*
X101684000Y-68348590D01*
X101684000Y-68486587D01*
X100664041Y-68486587D01*
G37*
G36*
X100664041Y-68074306D02*
G01*
X100664041Y-67888498D01*
X101517304Y-67436282D01*
X100664041Y-67436282D01*
X100664041Y-67302376D01*
X101684000Y-67302376D01*
X101684000Y-67488184D01*
X100830737Y-67940460D01*
X101684000Y-67940460D01*
X101684000Y-68074306D01*
X100664041Y-68074306D01*
G37*
G36*
X101538553Y-66332549D02*
G01*
X101265856Y-66332549D01*
X101265856Y-66557985D01*
X101152527Y-66557985D01*
X101152527Y-66195956D01*
X101588867Y-66195956D01*
X101623464Y-66250876D01*
X101651993Y-66309511D01*
X101674535Y-66372238D01*
X101696140Y-66470739D01*
X101703539Y-66577830D01*
X101697301Y-66674170D01*
X101679536Y-66758047D01*
X101651223Y-66831321D01*
X101612713Y-66895533D01*
X101563710Y-66951826D01*
X101505951Y-66998664D01*
X101439587Y-67035784D01*
X101363347Y-67063268D01*
X101275594Y-67080603D01*
X101174387Y-67086710D01*
X101072844Y-67080596D01*
X100984865Y-67063247D01*
X100908494Y-67035753D01*
X100842077Y-66998637D01*
X100784331Y-66951826D01*
X100735330Y-66895534D01*
X100696820Y-66831318D01*
X100668507Y-66758032D01*
X100650741Y-66674137D01*
X100644502Y-66577769D01*
X100650802Y-66479750D01*
X100669293Y-66388236D01*
X100700043Y-66301550D01*
X100742199Y-66222578D01*
X100890699Y-66222578D01*
X100849703Y-66275489D01*
X100816725Y-66329606D01*
X100791231Y-66385183D01*
X100772725Y-66443331D01*
X100761585Y-66503502D01*
X100757831Y-66566167D01*
X100762666Y-66642334D01*
X100776264Y-66706871D01*
X100797639Y-66761601D01*
X100826342Y-66808032D01*
X100862489Y-66847290D01*
X100916853Y-66885969D01*
X100984860Y-66915254D01*
X101069482Y-66934289D01*
X101174387Y-66941202D01*
X101278882Y-66934298D01*
X101363270Y-66915278D01*
X101431181Y-66885995D01*
X101485552Y-66847290D01*
X101521703Y-66808008D01*
X101550407Y-66761561D01*
X101571781Y-66706829D01*
X101585377Y-66642303D01*
X101590210Y-66566167D01*
X101586882Y-66495144D01*
X101577632Y-66435741D01*
X101561321Y-66380581D01*
X101538553Y-66332549D01*
G37*
G36*
X96458553Y-68763254D02*
G01*
X96185856Y-68763254D01*
X96185856Y-68988690D01*
X96072527Y-68988690D01*
X96072527Y-68626661D01*
X96508867Y-68626661D01*
X96543464Y-68681581D01*
X96571993Y-68740216D01*
X96594535Y-68802943D01*
X96616140Y-68901444D01*
X96623539Y-69008534D01*
X96617301Y-69104875D01*
X96599536Y-69188752D01*
X96571223Y-69262026D01*
X96532713Y-69326238D01*
X96483710Y-69382531D01*
X96425951Y-69429369D01*
X96359587Y-69466489D01*
X96283347Y-69493973D01*
X96195594Y-69511308D01*
X96094387Y-69517414D01*
X95992844Y-69511301D01*
X95904865Y-69493952D01*
X95828494Y-69466458D01*
X95762077Y-69429342D01*
X95704331Y-69382531D01*
X95655330Y-69326239D01*
X95616820Y-69262023D01*
X95588507Y-69188737D01*
X95570741Y-69104842D01*
X95564502Y-69008473D01*
X95570802Y-68910455D01*
X95589293Y-68818941D01*
X95620043Y-68732255D01*
X95662199Y-68653283D01*
X95810699Y-68653283D01*
X95769703Y-68706194D01*
X95736725Y-68760311D01*
X95711231Y-68815888D01*
X95692725Y-68874036D01*
X95681585Y-68934207D01*
X95677831Y-68996872D01*
X95682666Y-69073038D01*
X95696264Y-69137576D01*
X95717639Y-69192306D01*
X95746342Y-69238737D01*
X95782489Y-69277995D01*
X95836853Y-69316673D01*
X95904860Y-69345958D01*
X95989482Y-69364994D01*
X96094387Y-69371907D01*
X96198882Y-69365003D01*
X96283270Y-69345983D01*
X96351181Y-69316700D01*
X96405552Y-69277995D01*
X96441703Y-69238713D01*
X96470407Y-69192266D01*
X96491781Y-69137534D01*
X96505377Y-69073008D01*
X96510210Y-68996872D01*
X96506882Y-68925849D01*
X96497632Y-68866446D01*
X96481321Y-68811285D01*
X96458553Y-68763254D01*
G37*
G36*
X95584041Y-68374236D02*
G01*
X95584041Y-68188428D01*
X96437304Y-67736212D01*
X95584041Y-67736212D01*
X95584041Y-67602306D01*
X96604000Y-67602306D01*
X96604000Y-67788114D01*
X95750737Y-68240391D01*
X96604000Y-68240391D01*
X96604000Y-68374236D01*
X95584041Y-68374236D01*
G37*
G36*
X96201155Y-66477209D02*
G01*
X96291340Y-66495629D01*
X96366423Y-66524302D01*
X96428817Y-66562411D01*
X96480352Y-66609948D01*
X96521428Y-66666100D01*
X96555192Y-66735063D01*
X96581081Y-66819164D01*
X96597923Y-66921208D01*
X96604000Y-67044394D01*
X96604000Y-67327899D01*
X95584041Y-67327899D01*
X95584041Y-67044394D01*
X95585078Y-67023267D01*
X95697370Y-67023267D01*
X95697370Y-67189902D01*
X96490671Y-67189902D01*
X96490671Y-67023267D01*
X96486008Y-66935552D01*
X96473075Y-66862975D01*
X96453147Y-66803179D01*
X96427038Y-66754128D01*
X96395050Y-66714178D01*
X96355773Y-66681192D01*
X96307690Y-66654407D01*
X96249236Y-66634043D01*
X96178436Y-66620861D01*
X96092982Y-66616115D01*
X96008170Y-66620852D01*
X95937841Y-66634016D01*
X95879715Y-66654367D01*
X95831844Y-66681156D01*
X95792686Y-66714178D01*
X95760812Y-66754110D01*
X95734787Y-66803150D01*
X95714918Y-66862944D01*
X95702021Y-66935531D01*
X95697370Y-67023267D01*
X95585078Y-67023267D01*
X95590124Y-66920513D01*
X95606963Y-66818123D01*
X95632815Y-66733951D01*
X95666482Y-66665129D01*
X95707384Y-66609276D01*
X95758759Y-66561957D01*
X95820916Y-66524028D01*
X95895667Y-66495498D01*
X95985403Y-66477173D01*
X96092982Y-66470607D01*
X96201155Y-66477209D01*
G37*
G36*
X98124041Y-69600091D02*
G01*
X98124041Y-68737303D01*
X98241278Y-68737303D01*
X98241278Y-69099393D01*
X99144000Y-69099393D01*
X99144000Y-69238062D01*
X98241278Y-69238062D01*
X98241278Y-69600091D01*
X98124041Y-69600091D01*
G37*
G36*
X98124041Y-68603824D02*
G01*
X98124041Y-68465827D01*
X99144000Y-68465827D01*
X99144000Y-68603824D01*
X98124041Y-68603824D01*
G37*
G36*
X98503412Y-67539253D02*
G01*
X98564782Y-67556525D01*
X98615195Y-67583734D01*
X98656552Y-67620869D01*
X98688334Y-67666359D01*
X98712388Y-67723028D01*
X98728007Y-67793281D01*
X98733672Y-67880071D01*
X98733672Y-68053545D01*
X99144000Y-68053545D01*
X99144000Y-68191542D01*
X98124041Y-68191542D01*
X98124041Y-67880071D01*
X98237370Y-67880071D01*
X98237370Y-68053545D01*
X98620343Y-68053545D01*
X98620343Y-67880071D01*
X98614178Y-67817705D01*
X98597209Y-67769089D01*
X98570517Y-67731144D01*
X98534110Y-67702747D01*
X98487756Y-67684938D01*
X98428490Y-67678510D01*
X98369720Y-67684920D01*
X98323587Y-67702713D01*
X98287196Y-67731144D01*
X98260504Y-67769089D01*
X98243535Y-67817705D01*
X98237370Y-67880071D01*
X98124041Y-67880071D01*
X98129729Y-67793308D01*
X98145415Y-67723063D01*
X98169581Y-67666383D01*
X98201527Y-67620869D01*
X98243035Y-67583662D01*
X98293363Y-67556456D01*
X98354345Y-67539226D01*
X98428490Y-67533063D01*
X98503412Y-67539253D01*
G37*
G36*
X92790041Y-69445057D02*
G01*
X92790041Y-68903327D01*
X92907278Y-68903327D01*
X92907278Y-69318662D01*
X93154635Y-69318662D01*
X93139125Y-69258578D01*
X93133935Y-69198433D01*
X93140422Y-69113519D01*
X93158750Y-69041541D01*
X93187885Y-68980256D01*
X93227725Y-68927934D01*
X93277672Y-68885032D01*
X93335523Y-68854138D01*
X93402830Y-68834921D01*
X93481737Y-68828161D01*
X93563089Y-68835185D01*
X93631416Y-68855029D01*
X93689176Y-68886744D01*
X93738131Y-68930621D01*
X93776356Y-68983963D01*
X93804820Y-69048334D01*
X93823019Y-69125944D01*
X93829539Y-69219560D01*
X93826884Y-69284001D01*
X93818792Y-69350413D01*
X93805553Y-69417298D01*
X93786552Y-69488044D01*
X93649776Y-69488044D01*
X93677401Y-69425340D01*
X93696854Y-69360977D01*
X93708363Y-69294210D01*
X93712302Y-69222308D01*
X93707984Y-69163383D01*
X93695805Y-69113520D01*
X93676513Y-69071181D01*
X93650265Y-69035157D01*
X93617011Y-69005372D01*
X93578590Y-68984032D01*
X93533981Y-68970803D01*
X93481737Y-68966158D01*
X93429493Y-68970804D01*
X93384895Y-68984034D01*
X93346495Y-69005374D01*
X93313271Y-69035157D01*
X93286997Y-69071185D01*
X93267686Y-69113533D01*
X93255495Y-69163414D01*
X93251172Y-69222369D01*
X93254256Y-69277487D01*
X93263567Y-69332706D01*
X93279066Y-69387478D01*
X93301974Y-69445057D01*
X92790041Y-69445057D01*
G37*
G36*
X93810000Y-68305665D02*
G01*
X92790041Y-68695049D01*
X92790041Y-68550884D01*
X93648799Y-68227812D01*
X92790041Y-67904007D01*
X92790041Y-67760515D01*
X93810000Y-68149227D01*
X93810000Y-68305665D01*
G37*
D11*
G36*
X86498625Y-53352072D02*
G01*
X88096572Y-53352072D01*
X88096572Y-53690885D01*
X87521710Y-53690885D01*
X87521710Y-55086001D01*
X87074629Y-55086001D01*
X87074629Y-53690885D01*
X86498625Y-53690885D01*
X86498625Y-53352072D01*
G37*
G36*
X88327949Y-53352072D02*
G01*
X88775030Y-53352072D01*
X88775030Y-55086001D01*
X88327949Y-55086001D01*
X88327949Y-53352072D01*
G37*
G36*
X89123809Y-54235645D02*
G01*
X89853130Y-54235645D01*
X89853130Y-54574458D01*
X89123809Y-54574458D01*
X89123809Y-54235645D01*
G37*
G36*
X90970561Y-53327451D02*
G01*
X91100608Y-53351024D01*
X91204854Y-53386892D01*
X91287794Y-53433350D01*
X91359145Y-53496888D01*
X91409534Y-53572189D01*
X91440631Y-53661557D01*
X91451596Y-53768738D01*
X91442092Y-53864330D01*
X91414966Y-53945522D01*
X91370837Y-54015270D01*
X91311341Y-54073250D01*
X91233111Y-54122238D01*
X91132297Y-54161737D01*
X91244940Y-54203226D01*
X91332292Y-54256299D01*
X91398760Y-54320348D01*
X91447813Y-54397936D01*
X91478101Y-54489154D01*
X91488757Y-54597503D01*
X91476988Y-54724078D01*
X91443895Y-54828530D01*
X91391026Y-54915302D01*
X91317482Y-54987387D01*
X91229984Y-55041032D01*
X91119601Y-55082273D01*
X90981361Y-55109341D01*
X90809365Y-55119218D01*
X90636844Y-55109348D01*
X90498026Y-55082288D01*
X90387050Y-55041045D01*
X90298965Y-54987387D01*
X90224872Y-54915228D01*
X90171661Y-54828424D01*
X90138379Y-54723997D01*
X90126548Y-54597503D01*
X90128753Y-54575081D01*
X90549338Y-54575081D01*
X90557695Y-54658088D01*
X90580641Y-54722259D01*
X90616706Y-54771892D01*
X90665721Y-54808588D01*
X90728606Y-54831783D01*
X90809469Y-54840194D01*
X90889532Y-54831780D01*
X90951611Y-54808591D01*
X90999844Y-54771892D01*
X91035251Y-54722350D01*
X91057835Y-54658183D01*
X91066071Y-54575081D01*
X91057805Y-54491131D01*
X91035194Y-54426631D01*
X90999844Y-54377128D01*
X90951602Y-54340369D01*
X90889523Y-54317148D01*
X90809469Y-54308722D01*
X90728658Y-54317198D01*
X90665770Y-54340590D01*
X90616706Y-54377647D01*
X90580626Y-54427599D01*
X90557685Y-54491995D01*
X90549338Y-54575081D01*
X90128753Y-54575081D01*
X90137204Y-54489154D01*
X90167492Y-54397936D01*
X90216545Y-54320348D01*
X90283016Y-54256305D01*
X90370399Y-54203230D01*
X90483112Y-54161737D01*
X90382317Y-54122216D01*
X90304277Y-54073226D01*
X90245091Y-54015270D01*
X90201322Y-53945565D01*
X90174394Y-53864371D01*
X90169340Y-53813166D01*
X90587642Y-53813166D01*
X90594706Y-53880315D01*
X90614214Y-53932645D01*
X90645148Y-53973541D01*
X90686813Y-54003633D01*
X90740420Y-54022749D01*
X90809469Y-54029699D01*
X90876954Y-54022786D01*
X90929644Y-54003708D01*
X90970883Y-53973541D01*
X91001456Y-53932694D01*
X91020768Y-53880366D01*
X91027767Y-53813166D01*
X91020756Y-53746047D01*
X91001436Y-53693983D01*
X90970883Y-53653516D01*
X90929685Y-53623650D01*
X90876996Y-53604736D01*
X90809469Y-53597878D01*
X90740420Y-53604827D01*
X90686813Y-53623943D01*
X90645148Y-53654035D01*
X90614158Y-53694906D01*
X90594676Y-53746861D01*
X90587642Y-53813166D01*
X90169340Y-53813166D01*
X90164955Y-53768738D01*
X90175881Y-53662223D01*
X90206910Y-53573131D01*
X90257266Y-53497798D01*
X90328653Y-53433972D01*
X90411654Y-53387309D01*
X90516263Y-53351245D01*
X90647080Y-53327516D01*
X90809469Y-53318855D01*
X90970561Y-53327451D01*
G37*
G36*
X92935670Y-54448234D02*
G01*
X93183033Y-54448234D01*
X93183033Y-54773760D01*
X92935670Y-54773760D01*
X92935670Y-55086001D01*
X92512880Y-55086001D01*
X92512880Y-54773760D01*
X91744113Y-54773760D01*
X91744113Y-54448234D01*
X92022825Y-54448234D01*
X92512880Y-54448234D01*
X92512880Y-53720988D01*
X92022825Y-54448234D01*
X91744113Y-54448234D01*
X91744113Y-54389481D01*
X92438557Y-53352072D01*
X92935670Y-53352072D01*
X92935670Y-54448234D01*
G37*
G36*
X94338571Y-53352072D02*
G01*
X94785651Y-53352072D01*
X94785651Y-54009769D01*
X95445320Y-54009769D01*
X95445320Y-53352072D01*
X95892401Y-53352072D01*
X95892401Y-55086001D01*
X95445320Y-55086001D01*
X95445320Y-54348582D01*
X94785651Y-54348582D01*
X94785651Y-55086001D01*
X94338571Y-55086001D01*
X94338571Y-53352072D01*
G37*
G36*
X97045931Y-53761498D02*
G01*
X97185700Y-53790684D01*
X97292645Y-53834422D01*
X97373361Y-53890603D01*
X97437583Y-53965169D01*
X97486143Y-54062007D01*
X97517922Y-54186486D01*
X97529585Y-54345572D01*
X97529585Y-55086001D01*
X97110324Y-55086001D01*
X97110324Y-54893342D01*
X97050046Y-54967334D01*
X96987461Y-55023922D01*
X96922232Y-55065344D01*
X96850608Y-55094334D01*
X96766617Y-55112703D01*
X96667915Y-55119218D01*
X96568001Y-55111280D01*
X96481462Y-55088619D01*
X96405979Y-55052158D01*
X96339793Y-55001712D01*
X96284985Y-54938980D01*
X96246061Y-54868383D01*
X96222182Y-54788348D01*
X96213879Y-54696635D01*
X96216118Y-54673694D01*
X96633037Y-54673694D01*
X96639254Y-54723268D01*
X96656864Y-54763275D01*
X96685872Y-54795974D01*
X96723499Y-54819560D01*
X96771510Y-54834688D01*
X96832754Y-54840194D01*
X96907426Y-54830784D01*
X96972421Y-54803322D01*
X97030188Y-54756944D01*
X97074414Y-54697318D01*
X97101075Y-54628725D01*
X97110324Y-54548507D01*
X97110324Y-54501381D01*
X96894309Y-54501381D01*
X96808158Y-54507172D01*
X96744648Y-54522492D01*
X96698640Y-54545082D01*
X96662321Y-54578582D01*
X96640666Y-54620528D01*
X96633037Y-54673694D01*
X96216118Y-54673694D01*
X96224768Y-54585065D01*
X96255191Y-54494848D01*
X96303653Y-54421477D01*
X96371245Y-54362077D01*
X96450334Y-54319880D01*
X96554823Y-54286428D01*
X96690812Y-54263927D01*
X96865348Y-54255575D01*
X97110324Y-54255575D01*
X97110324Y-54222046D01*
X97101186Y-54160029D01*
X97075482Y-54112595D01*
X97032471Y-54076099D01*
X96978231Y-54052515D01*
X96899857Y-54036046D01*
X96789780Y-54029699D01*
X96658994Y-54036549D01*
X96541275Y-54056273D01*
X96429760Y-54089734D01*
X96327648Y-54135994D01*
X96327648Y-53817110D01*
X96461715Y-53788395D01*
X96595875Y-53767596D01*
X96730737Y-53754898D01*
X96865348Y-53750676D01*
X97045931Y-53761498D01*
G37*
G36*
X98968401Y-53823753D02*
G01*
X98968401Y-54162567D01*
X98882046Y-54111748D01*
X98798268Y-54077345D01*
X98711573Y-54056596D01*
X98621180Y-54049629D01*
X98534808Y-54056667D01*
X98462406Y-54076493D01*
X98401417Y-54108004D01*
X98349942Y-54151253D01*
X98297808Y-54224508D01*
X98264885Y-54317219D01*
X98252990Y-54434947D01*
X98264883Y-54552676D01*
X98297804Y-54645426D01*
X98349942Y-54718745D01*
X98401410Y-54761944D01*
X98462396Y-54793424D01*
X98534801Y-54813233D01*
X98621180Y-54820264D01*
X98716909Y-54813054D01*
X98806364Y-54791822D01*
X98890648Y-54756468D01*
X98968401Y-54707326D01*
X98968401Y-55046140D01*
X98869863Y-55078177D01*
X98770345Y-55100948D01*
X98669690Y-55114661D01*
X98568967Y-55119218D01*
X98425752Y-55110977D01*
X98301567Y-55087603D01*
X98193740Y-55050619D01*
X98099988Y-55000829D01*
X98018498Y-54938289D01*
X97948518Y-54862201D01*
X97893819Y-54775608D01*
X97853771Y-54677006D01*
X97828711Y-54564308D01*
X97819923Y-54434947D01*
X97828712Y-54305582D01*
X97853774Y-54192896D01*
X97893823Y-54094317D01*
X97948521Y-54007756D01*
X98018498Y-53931709D01*
X98099994Y-53869129D01*
X98193749Y-53819310D01*
X98301576Y-53782306D01*
X98425758Y-53758921D01*
X98568967Y-53750676D01*
X98670529Y-53755257D01*
X98770345Y-53768945D01*
X98869036Y-53791646D01*
X98968401Y-53823753D01*
G37*
G36*
X99327457Y-53278994D02*
G01*
X99743188Y-53278994D01*
X99743188Y-54261699D01*
X100221721Y-53783893D01*
X100704821Y-53783893D01*
X100069546Y-54381488D01*
X100754751Y-55086001D01*
X100250682Y-55086001D01*
X99743188Y-54543110D01*
X99743188Y-55086001D01*
X99327457Y-55086001D01*
X99327457Y-53278994D01*
G37*
G36*
X101926378Y-53823753D02*
G01*
X101926378Y-54142637D01*
X101792983Y-54092527D01*
X101668530Y-54057934D01*
X101545627Y-54036500D01*
X101434039Y-54029699D01*
X101323856Y-54038393D01*
X101258092Y-54059491D01*
X101225625Y-54083398D01*
X101207016Y-54113222D01*
X101200586Y-54150941D01*
X101211404Y-54195142D01*
X101244079Y-54227859D01*
X101296968Y-54249056D01*
X101400303Y-54267512D01*
X101473484Y-54277893D01*
X101641763Y-54305975D01*
X101762930Y-54338850D01*
X101847140Y-54374445D01*
X101903126Y-54411383D01*
X101949264Y-54461353D01*
X101983471Y-54524418D01*
X102005484Y-54603523D01*
X102013468Y-54702655D01*
X102003144Y-54803501D01*
X101973959Y-54886922D01*
X101926805Y-54956600D01*
X101860151Y-55014791D01*
X101782829Y-55056812D01*
X101684072Y-55089561D01*
X101559175Y-55111258D01*
X101402690Y-55119218D01*
X101272846Y-55114329D01*
X101136124Y-55099287D01*
X100998020Y-55074672D01*
X100853364Y-55039497D01*
X100853364Y-54720613D01*
X100979640Y-54773085D01*
X101108201Y-54810299D01*
X101239822Y-54832712D01*
X101373625Y-54840194D01*
X101487189Y-54830558D01*
X101557150Y-54806770D01*
X101591974Y-54780219D01*
X101611871Y-54747839D01*
X101618705Y-54707638D01*
X101607812Y-54658754D01*
X101576249Y-54625114D01*
X101522736Y-54603639D01*
X101407362Y-54583074D01*
X101334180Y-54573835D01*
X101189972Y-54549240D01*
X101081523Y-54518354D01*
X101001900Y-54483064D01*
X100945126Y-54444600D01*
X100898119Y-54393800D01*
X100863582Y-54331014D01*
X100841566Y-54253664D01*
X100833641Y-54158207D01*
X100843414Y-54056722D01*
X100870787Y-53974041D01*
X100914454Y-53906262D01*
X100975333Y-53850846D01*
X101046950Y-53810745D01*
X101139813Y-53779329D01*
X101258814Y-53758395D01*
X101409645Y-53750676D01*
X101525820Y-53754994D01*
X101651091Y-53768426D01*
X101779931Y-53790420D01*
X101926378Y-53823753D01*
G37*
G36*
X88316012Y-57942001D02*
G01*
X87866648Y-57942001D01*
X87757447Y-57623117D01*
X87058332Y-57623117D01*
X86947990Y-57942001D01*
X86498625Y-57942001D01*
X86734848Y-57304234D01*
X87169817Y-57304234D01*
X87644821Y-57304234D01*
X87407942Y-56614461D01*
X87169817Y-57304234D01*
X86734848Y-57304234D01*
X87140856Y-56208072D01*
X87673885Y-56208072D01*
X88316012Y-57942001D01*
G37*
G36*
X89836210Y-57146349D02*
G01*
X89836210Y-57942001D01*
X89418195Y-57942001D01*
X89418195Y-57812558D01*
X89418195Y-57333091D01*
X89410617Y-57099741D01*
X89399315Y-57040356D01*
X89384562Y-57005280D01*
X89355808Y-56968922D01*
X89318336Y-56941649D01*
X89274280Y-56924764D01*
X89223045Y-56918916D01*
X89141417Y-56930465D01*
X89074508Y-56963680D01*
X89018656Y-57019813D01*
X88979295Y-57090866D01*
X88953708Y-57182223D01*
X88944333Y-57299251D01*
X88944333Y-57942001D01*
X88528601Y-57942001D01*
X88528601Y-56639893D01*
X88944333Y-56639893D01*
X88944333Y-56825908D01*
X89010789Y-56755141D01*
X89077241Y-56700499D01*
X89144050Y-56660031D01*
X89216162Y-56630640D01*
X89293610Y-56612777D01*
X89377504Y-56606676D01*
X89488823Y-56616297D01*
X89580571Y-56643259D01*
X89656541Y-56686014D01*
X89719431Y-56744838D01*
X89767610Y-56816167D01*
X89804049Y-56904371D01*
X89827665Y-57012992D01*
X89836210Y-57146349D01*
G37*
G36*
X91525711Y-57942001D02*
G01*
X91107592Y-57942001D01*
X91107592Y-57755985D01*
X91046127Y-57827259D01*
X90983127Y-57882080D01*
X90918255Y-57922485D01*
X90847621Y-57951209D01*
X90768422Y-57969021D01*
X90679092Y-57975218D01*
X90563364Y-57963057D01*
X90460767Y-57927653D01*
X90368337Y-57868776D01*
X90284225Y-57783804D01*
X90218489Y-57684673D01*
X90170421Y-57571292D01*
X90140333Y-57441111D01*
X90129766Y-57290947D01*
X90560653Y-57290947D01*
X90569778Y-57414835D01*
X90594220Y-57508154D01*
X90630927Y-57577651D01*
X90684241Y-57632122D01*
X90750394Y-57664763D01*
X90833551Y-57676264D01*
X90917470Y-57664729D01*
X90983972Y-57632055D01*
X91037317Y-57577651D01*
X91074024Y-57508154D01*
X91098467Y-57414835D01*
X91107592Y-57290947D01*
X91098465Y-57167058D01*
X91074020Y-57073778D01*
X91037317Y-57004346D01*
X90983964Y-56949880D01*
X90917461Y-56917174D01*
X90833551Y-56905629D01*
X90750403Y-56917140D01*
X90684249Y-56949812D01*
X90630927Y-57004346D01*
X90594225Y-57073778D01*
X90569780Y-57167058D01*
X90560653Y-57290947D01*
X90129766Y-57290947D01*
X90140333Y-57140783D01*
X90170421Y-57010601D01*
X90218489Y-56897221D01*
X90284225Y-56798089D01*
X90368337Y-56713118D01*
X90460767Y-56654241D01*
X90563364Y-56618836D01*
X90679092Y-56606676D01*
X90767625Y-56612913D01*
X90846680Y-56630904D01*
X90917736Y-56660031D01*
X90983027Y-56700701D01*
X91046203Y-56755364D01*
X91107592Y-56825908D01*
X91107592Y-56134994D01*
X91525711Y-56134994D01*
X91525711Y-57942001D01*
G37*
G36*
X91754390Y-56639893D02*
G01*
X92170121Y-56639893D01*
X92519627Y-57523466D01*
X92816919Y-56639893D01*
X93232651Y-56639893D01*
X92685712Y-58063865D01*
X92622037Y-58204518D01*
X92557792Y-58302403D01*
X92493468Y-58367075D01*
X92415984Y-58413590D01*
X92320906Y-58442996D01*
X92203754Y-58453543D01*
X91963345Y-58453543D01*
X91963345Y-58181163D01*
X92093411Y-58181163D01*
X92190671Y-58171410D01*
X92247247Y-58147635D01*
X92287943Y-58104309D01*
X92322193Y-58027534D01*
X92333819Y-57991515D01*
X91754390Y-56639893D01*
G37*
G36*
X94404382Y-56218743D02*
G01*
X94541574Y-56248309D01*
X94653712Y-56294049D01*
X94745064Y-56354642D01*
X94821202Y-56433881D01*
X94875924Y-56527702D01*
X94910068Y-56639038D01*
X94922152Y-56772138D01*
X94910048Y-56905913D01*
X94875872Y-57017668D01*
X94821145Y-57111702D01*
X94745064Y-57190984D01*
X94653719Y-57251531D01*
X94541584Y-57297238D01*
X94404390Y-57326786D01*
X94236947Y-57337451D01*
X93941938Y-57337451D01*
X93941938Y-57942001D01*
X93494858Y-57942001D01*
X93494858Y-57011924D01*
X93941938Y-57011924D01*
X94189301Y-57011924D01*
X94273875Y-57004110D01*
X94339424Y-56982724D01*
X94390161Y-56949434D01*
X94428684Y-56903408D01*
X94452523Y-56845511D01*
X94461058Y-56772138D01*
X94452511Y-56698853D01*
X94428667Y-56641216D01*
X94390161Y-56595569D01*
X94339465Y-56562575D01*
X94273917Y-56541356D01*
X94189301Y-56533599D01*
X93941938Y-56533599D01*
X93941938Y-57011924D01*
X93494858Y-57011924D01*
X93494858Y-56208072D01*
X94236947Y-56208072D01*
X94404382Y-56218743D01*
G37*
G36*
X95889978Y-56617498D02*
G01*
X96029747Y-56646684D01*
X96136693Y-56690422D01*
X96217409Y-56746603D01*
X96281630Y-56821169D01*
X96330191Y-56918007D01*
X96361969Y-57042486D01*
X96373632Y-57201572D01*
X96373632Y-57942001D01*
X95954371Y-57942001D01*
X95954371Y-57749342D01*
X95894093Y-57823334D01*
X95831508Y-57879922D01*
X95766280Y-57921344D01*
X95694655Y-57950334D01*
X95610665Y-57968703D01*
X95511962Y-57975218D01*
X95412049Y-57967280D01*
X95325510Y-57944619D01*
X95250027Y-57908158D01*
X95183840Y-57857712D01*
X95129033Y-57794980D01*
X95090109Y-57724383D01*
X95066230Y-57644348D01*
X95057927Y-57552635D01*
X95060166Y-57529694D01*
X95477084Y-57529694D01*
X95483302Y-57579268D01*
X95500912Y-57619275D01*
X95529920Y-57651974D01*
X95567546Y-57675560D01*
X95615558Y-57690688D01*
X95676801Y-57696194D01*
X95751474Y-57686784D01*
X95816468Y-57659322D01*
X95874235Y-57612944D01*
X95918461Y-57553318D01*
X95945123Y-57484725D01*
X95954371Y-57404507D01*
X95954371Y-57357381D01*
X95738357Y-57357381D01*
X95652205Y-57363172D01*
X95588695Y-57378492D01*
X95542688Y-57401082D01*
X95506369Y-57434582D01*
X95484713Y-57476528D01*
X95477084Y-57529694D01*
X95060166Y-57529694D01*
X95068816Y-57441065D01*
X95099239Y-57350848D01*
X95147700Y-57277477D01*
X95215292Y-57218077D01*
X95294381Y-57175880D01*
X95398870Y-57142428D01*
X95534859Y-57119927D01*
X95709396Y-57111575D01*
X95954371Y-57111575D01*
X95954371Y-57078046D01*
X95945234Y-57016029D01*
X95919529Y-56968595D01*
X95876519Y-56932099D01*
X95822279Y-56908515D01*
X95743905Y-56892046D01*
X95633827Y-56885699D01*
X95503042Y-56892549D01*
X95385322Y-56912273D01*
X95273807Y-56945734D01*
X95171695Y-56991994D01*
X95171695Y-56673110D01*
X95305762Y-56644395D01*
X95439923Y-56623596D01*
X95574784Y-56610898D01*
X95709396Y-56606676D01*
X95889978Y-56617498D01*
G37*
G36*
X98069050Y-57146349D02*
G01*
X98069050Y-57942001D01*
X97651035Y-57942001D01*
X97651035Y-57812558D01*
X97651035Y-57333091D01*
X97643457Y-57099741D01*
X97632155Y-57040356D01*
X97617403Y-57005280D01*
X97588648Y-56968922D01*
X97551176Y-56941649D01*
X97507121Y-56924764D01*
X97455885Y-56918916D01*
X97374258Y-56930465D01*
X97307348Y-56963680D01*
X97251496Y-57019813D01*
X97212135Y-57090866D01*
X97186548Y-57182223D01*
X97177173Y-57299251D01*
X97177173Y-57942001D01*
X96761441Y-57942001D01*
X96761441Y-56639893D01*
X97177173Y-56639893D01*
X97177173Y-56825908D01*
X97243629Y-56755141D01*
X97310081Y-56700499D01*
X97376890Y-56660031D01*
X97449002Y-56630640D01*
X97526450Y-56612777D01*
X97610344Y-56606676D01*
X97721663Y-56616297D01*
X97813411Y-56643259D01*
X97889381Y-56686014D01*
X97952272Y-56744838D01*
X98000450Y-56816167D01*
X98036890Y-56904371D01*
X98060505Y-57012992D01*
X98069050Y-57146349D01*
G37*
G36*
X99758551Y-57942001D02*
G01*
X99340432Y-57942001D01*
X99340432Y-57755985D01*
X99278967Y-57827259D01*
X99215967Y-57882080D01*
X99151095Y-57922485D01*
X99080461Y-57951209D01*
X99001262Y-57969021D01*
X98911932Y-57975218D01*
X98796204Y-57963057D01*
X98693607Y-57927653D01*
X98601177Y-57868776D01*
X98517065Y-57783804D01*
X98451329Y-57684673D01*
X98403261Y-57571292D01*
X98373173Y-57441111D01*
X98362606Y-57290947D01*
X98793493Y-57290947D01*
X98802618Y-57414835D01*
X98827061Y-57508154D01*
X98863768Y-57577651D01*
X98917081Y-57632122D01*
X98983235Y-57664763D01*
X99066392Y-57676264D01*
X99150310Y-57664729D01*
X99216812Y-57632055D01*
X99270157Y-57577651D01*
X99306864Y-57508154D01*
X99331307Y-57414835D01*
X99340432Y-57290947D01*
X99331305Y-57167058D01*
X99306860Y-57073778D01*
X99270157Y-57004346D01*
X99216804Y-56949880D01*
X99150301Y-56917174D01*
X99066392Y-56905629D01*
X98983243Y-56917140D01*
X98917089Y-56949812D01*
X98863768Y-57004346D01*
X98827065Y-57073778D01*
X98802620Y-57167058D01*
X98793493Y-57290947D01*
X98362606Y-57290947D01*
X98373173Y-57140783D01*
X98403261Y-57010601D01*
X98451329Y-56897221D01*
X98517065Y-56798089D01*
X98601177Y-56713118D01*
X98693607Y-56654241D01*
X98796204Y-56618836D01*
X98911932Y-56606676D01*
X99000465Y-56612913D01*
X99079520Y-56630904D01*
X99150576Y-56660031D01*
X99215867Y-56700701D01*
X99279044Y-56755364D01*
X99340432Y-56825908D01*
X99340432Y-56134994D01*
X99758551Y-56134994D01*
X99758551Y-57942001D01*
G37*
G36*
X99987230Y-56639893D02*
G01*
X100402962Y-56639893D01*
X100752467Y-57523466D01*
X101049759Y-56639893D01*
X101465491Y-56639893D01*
X100918552Y-58063865D01*
X100854877Y-58204518D01*
X100790632Y-58302403D01*
X100726309Y-58367075D01*
X100648824Y-58413590D01*
X100553746Y-58442996D01*
X100436594Y-58453543D01*
X100196186Y-58453543D01*
X100196186Y-58181163D01*
X100326251Y-58181163D01*
X100423511Y-58171410D01*
X100480087Y-58147635D01*
X100520784Y-58104309D01*
X100555033Y-58027534D01*
X100566659Y-57991515D01*
X99987230Y-56639893D01*
G37*
G36*
X87172204Y-60472474D02*
G01*
X87935158Y-60472474D01*
X87935158Y-60798001D01*
X86675091Y-60798001D01*
X86675091Y-60472474D01*
X87308083Y-59908096D01*
X87384298Y-59829395D01*
X87433373Y-59758515D01*
X87464041Y-59683451D01*
X87474064Y-59606651D01*
X87464534Y-59529113D01*
X87437290Y-59464818D01*
X87392163Y-59410671D01*
X87333648Y-59370452D01*
X87262258Y-59345384D01*
X87174488Y-59336451D01*
X87068409Y-59346691D01*
X86945706Y-59379945D01*
X86821119Y-59432000D01*
X86679762Y-59509180D01*
X86679762Y-59130506D01*
X86830894Y-59087373D01*
X86978196Y-59056390D01*
X87125213Y-59037154D01*
X87267392Y-59030855D01*
X87424610Y-59040762D01*
X87554746Y-59068330D01*
X87662304Y-59111160D01*
X87751011Y-59168082D01*
X87825952Y-59242783D01*
X87879162Y-59329651D01*
X87912000Y-59431102D01*
X87923532Y-59550805D01*
X87915376Y-59643406D01*
X87891128Y-59731148D01*
X87850351Y-59815399D01*
X87794544Y-59893294D01*
X87696899Y-60000166D01*
X87542574Y-60143936D01*
X87172204Y-60472474D01*
G37*
G36*
X89106751Y-59041073D02*
G01*
X89224776Y-59070245D01*
X89327940Y-59117077D01*
X89418553Y-59181575D01*
X89498123Y-59265035D01*
X89560971Y-59359289D01*
X89611978Y-59470225D01*
X89650497Y-59600455D01*
X89675158Y-59753091D01*
X89683931Y-59931659D01*
X89675168Y-60109645D01*
X89650527Y-60261897D01*
X89612022Y-60391907D01*
X89561009Y-60502759D01*
X89498123Y-60597037D01*
X89418553Y-60680497D01*
X89327940Y-60744995D01*
X89224776Y-60791827D01*
X89106751Y-60820999D01*
X88970907Y-60831218D01*
X88834500Y-60820984D01*
X88716095Y-60791782D01*
X88612705Y-60744929D01*
X88521997Y-60680439D01*
X88442444Y-60597037D01*
X88379558Y-60502759D01*
X88328545Y-60391907D01*
X88290041Y-60261897D01*
X88265399Y-60109645D01*
X88256637Y-59931659D01*
X88256841Y-59927507D01*
X88703821Y-59927507D01*
X88712721Y-60149397D01*
X88735067Y-60297370D01*
X88765376Y-60390884D01*
X88802448Y-60451226D01*
X88847950Y-60492207D01*
X88903094Y-60516931D01*
X88970907Y-60525621D01*
X89038111Y-60516959D01*
X89092893Y-60492283D01*
X89138230Y-60451309D01*
X89175295Y-60390884D01*
X89205604Y-60297370D01*
X89227950Y-60149397D01*
X89236850Y-59927507D01*
X89228021Y-59707994D01*
X89205860Y-59561742D01*
X89175814Y-59469423D01*
X89139132Y-59410005D01*
X89093892Y-59369546D01*
X89038838Y-59345071D01*
X88970907Y-59336451D01*
X88902967Y-59345062D01*
X88847792Y-59369529D01*
X88802345Y-59409995D01*
X88765376Y-59469423D01*
X88735069Y-59561767D01*
X88712723Y-59708018D01*
X88703821Y-59927507D01*
X88256841Y-59927507D01*
X88265409Y-59753091D01*
X88290071Y-59600455D01*
X88328589Y-59470225D01*
X88379596Y-59359289D01*
X88442444Y-59265035D01*
X88521997Y-59181633D01*
X88612705Y-59117143D01*
X88716095Y-59070290D01*
X88834500Y-59041088D01*
X88970907Y-59030855D01*
X89106751Y-59041073D01*
G37*
G36*
X90483942Y-60472474D02*
G01*
X91246896Y-60472474D01*
X91246896Y-60798001D01*
X89986829Y-60798001D01*
X89986829Y-60472474D01*
X90619821Y-59908096D01*
X90696036Y-59829395D01*
X90745111Y-59758515D01*
X90775778Y-59683451D01*
X90785802Y-59606651D01*
X90776272Y-59529113D01*
X90749028Y-59464818D01*
X90703901Y-59410671D01*
X90645386Y-59370452D01*
X90573996Y-59345384D01*
X90486226Y-59336451D01*
X90380147Y-59346691D01*
X90257443Y-59379945D01*
X90132856Y-59432000D01*
X89991500Y-59509180D01*
X89991500Y-59130506D01*
X90142631Y-59087373D01*
X90289934Y-59056390D01*
X90436951Y-59037154D01*
X90579130Y-59030855D01*
X90736347Y-59040762D01*
X90866483Y-59068330D01*
X90974042Y-59111160D01*
X91062749Y-59168082D01*
X91137690Y-59242783D01*
X91190899Y-59329651D01*
X91223738Y-59431102D01*
X91235270Y-59550805D01*
X91227114Y-59643406D01*
X91202866Y-59731148D01*
X91162088Y-59815399D01*
X91106282Y-59893294D01*
X91008637Y-60000166D01*
X90854312Y-60143936D01*
X90483942Y-60472474D01*
G37*
G36*
X91706640Y-59064072D02*
G01*
X92817957Y-59064072D01*
X92817957Y-59389599D01*
X92063100Y-59389599D01*
X92063100Y-59657826D01*
X92165866Y-59636339D01*
X92273302Y-59628761D01*
X92432141Y-59640026D01*
X92564439Y-59671546D01*
X92674775Y-59721011D01*
X92766782Y-59787684D01*
X92842448Y-59872664D01*
X92897105Y-59972625D01*
X92931271Y-60090554D01*
X92943352Y-60230612D01*
X92935023Y-60342559D01*
X92911167Y-60440633D01*
X92872753Y-60527104D01*
X92819745Y-60603756D01*
X92751108Y-60671776D01*
X92651770Y-60738331D01*
X92532477Y-60788037D01*
X92389335Y-60819836D01*
X92217560Y-60831218D01*
X92070846Y-60824210D01*
X91925561Y-60803191D01*
X91782154Y-60768222D01*
X91638130Y-60718280D01*
X91638130Y-60366179D01*
X91779677Y-60437481D01*
X91906980Y-60485760D01*
X92033047Y-60516074D01*
X92146766Y-60525621D01*
X92252387Y-60515794D01*
X92336159Y-60488624D01*
X92402744Y-60445900D01*
X92454250Y-60387192D01*
X92485352Y-60316463D01*
X92496271Y-60229989D01*
X92485307Y-60142774D01*
X92454167Y-60071918D01*
X92402744Y-60013560D01*
X92336199Y-59971132D01*
X92252427Y-59944129D01*
X92146766Y-59934358D01*
X92049086Y-59940227D01*
X91941132Y-59958752D01*
X91830916Y-59988766D01*
X91706640Y-60034009D01*
X91706640Y-59064072D01*
G37*
D12*
%TO.C,Q1*%
X121968500Y-61559000D02*
X121318500Y-61559000D01*
X121968500Y-61559000D02*
X122618500Y-61559000D01*
X121968500Y-64679000D02*
X121318500Y-64679000D01*
X121968500Y-64679000D02*
X122618500Y-64679000D01*
X123371000Y-64959000D02*
X122891000Y-64959000D01*
X123131000Y-64629000D01*
X123371000Y-64959000D01*
G36*
X123371000Y-64959000D02*
G01*
X122891000Y-64959000D01*
X123131000Y-64629000D01*
X123371000Y-64959000D01*
G37*
%TO.C,J1*%
X92142000Y-70298000D02*
X92142000Y-72958000D01*
X99822000Y-70298000D02*
X92142000Y-70298000D01*
X99822000Y-70298000D02*
X99822000Y-72958000D01*
X99822000Y-72958000D02*
X92142000Y-72958000D01*
X101092000Y-70298000D02*
X102422000Y-70298000D01*
X102422000Y-70298000D02*
X102422000Y-71628000D01*
%TO.C,R4*%
X111025000Y-56801000D02*
X111025000Y-63341000D01*
X111025000Y-63341000D02*
X113765000Y-63341000D01*
X112395000Y-56031000D02*
X112395000Y-56801000D01*
X112395000Y-64111000D02*
X112395000Y-63341000D01*
X113765000Y-56801000D02*
X111025000Y-56801000D01*
X113765000Y-63341000D02*
X113765000Y-56801000D01*
%TO.C,R2*%
X129506000Y-56674000D02*
X129506000Y-63214000D01*
X129506000Y-63214000D02*
X132246000Y-63214000D01*
X130876000Y-55904000D02*
X130876000Y-56674000D01*
X130876000Y-63984000D02*
X130876000Y-63214000D01*
X132246000Y-56674000D02*
X129506000Y-56674000D01*
X132246000Y-63214000D02*
X132246000Y-56674000D01*
D13*
%TO.C,U1*%
X134280000Y-53866000D02*
X134280000Y-71666000D01*
X134280000Y-71666000D02*
X155280000Y-71666000D01*
X149352000Y-58262000D02*
X156705000Y-58262000D01*
X149352000Y-67261000D02*
X149352000Y-58262000D01*
X154608500Y-53866000D02*
X134280000Y-53866000D01*
X155280000Y-54537541D02*
X154608500Y-53866000D01*
X155280000Y-71666000D02*
X155280000Y-54537541D01*
X156704000Y-58266000D02*
X156704000Y-67261000D01*
X156704000Y-67261000D02*
X149352000Y-67261000D01*
D12*
%TO.C,R3*%
X114454000Y-56801000D02*
X114454000Y-63341000D01*
X114454000Y-63341000D02*
X117194000Y-63341000D01*
X115824000Y-56031000D02*
X115824000Y-56801000D01*
X115824000Y-64111000D02*
X115824000Y-63341000D01*
X117194000Y-56801000D02*
X114454000Y-56801000D01*
X117194000Y-63341000D02*
X117194000Y-56801000D01*
%TO.C,Q2*%
X121968500Y-56606000D02*
X121318500Y-56606000D01*
X121968500Y-56606000D02*
X122618500Y-56606000D01*
X121968500Y-59726000D02*
X121318500Y-59726000D01*
X121968500Y-59726000D02*
X122618500Y-59726000D01*
X123371000Y-60006000D02*
X122891000Y-60006000D01*
X123131000Y-59676000D01*
X123371000Y-60006000D01*
G36*
X123371000Y-60006000D02*
G01*
X122891000Y-60006000D01*
X123131000Y-59676000D01*
X123371000Y-60006000D01*
G37*
%TO.C,R1*%
X126138000Y-56674000D02*
X126138000Y-63214000D01*
X126138000Y-63214000D02*
X128878000Y-63214000D01*
X127508000Y-55904000D02*
X127508000Y-56674000D01*
X127508000Y-63984000D02*
X127508000Y-63214000D01*
X128878000Y-56674000D02*
X126138000Y-56674000D01*
X128878000Y-63214000D02*
X128878000Y-56674000D01*
%TD*%
M02*
